<svg xmlns="http://www.w3.org/2000/svg" xmlns:xlink="http://www.w3.org/1999/xlink" version="1.1" x="0px" y="0px" viewBox="0 0 100 125" style="enable-background:new 0 0 100 100;" xml:space="preserve"><g><path d="M75.52,48.99L44.89,27.04c-0.39-0.28-0.9-0.31-1.32-0.1c-0.42,0.22-0.69,0.65-0.69,1.13v14.84H30.75  c-0.7,0-1.27,0.57-1.27,1.27c0,0.7,0.57,1.27,1.27,1.27h12.14v3.28H25.22c-0.7,0-1.27,0.57-1.27,1.27c0,0.7,0.57,1.27,1.27,1.27  h17.67v3.28H30.75c-0.7,0-1.27,0.57-1.27,1.27s0.57,1.27,1.27,1.27h12.14v14.84c0,0.48,0.27,0.91,0.69,1.13  c0.18,0.09,0.38,0.14,0.58,0.14c0.26,0,0.52-0.08,0.74-0.24l30.63-21.9c0.33-0.24,0.53-0.62,0.53-1.03S75.85,49.23,75.52,48.99z   M45.42,69.46V57.08h7.25c0.7,0,1.27-0.57,1.27-1.27s-0.57-1.27-1.27-1.27h-7.25v-3.28H58.2c0.7,0,1.27-0.57,1.27-1.27  c0-0.7-0.57-1.27-1.27-1.27H45.42v-3.28h7.25c0.7,0,1.27-0.57,1.27-1.27c0-0.7-0.57-1.27-1.27-1.27h-7.25V30.54L72.6,50.02  L45.42,69.46z"/></g></svg>