<?xml version="1.0" encoding="utf-8"?>
<!-- Generator: Adobe Illustrator 19.1.0, SVG Export Plug-In . SVG Version: 6.00 Build 0)  -->
<svg version="1.1" id="Layer_1" xmlns="http://www.w3.org/2000/svg" xmlns:xlink="http://www.w3.org/1999/xlink" x="0px" y="0px"
	 viewBox="0 0 26.6 11.7" style="enable-background:new 0 0 26.6 11.7;" xml:space="preserve">
<style type="text/css">
	.st0{fill:none;stroke:#010101;stroke-width:0.7087;stroke-miterlimit:10;}
</style>
<path class="st0" d="M2.2,9.4c0,0,0.3,1.6,1.9,1.6S6,10.2,6,10.2s0.6,0,0.9-0.7L19,9.4c0,0,0.1,1.8,2.1,1.8c0,0,1.8,0.1,2-1.8
	c0,0,2.8,0.2,2.8-0.8s0-0.6,0-0.6L26,7.6V6.9h-0.1l0-0.7c0,0-0.4-0.8-0.6-1C25,5,24.3,4.7,23.5,4.5c-0.8-0.2-3.7-0.7-3.7-0.7
	l-0.4-0.3H19c0,0-3.5-2.2-4.9-2.5c-1.5-0.3-4.9-0.5-8.9,0c0,0-1.1,0.1-1.8,0.1c0,0-0.3,0-0.3,0.3s0.1,0.1,0,0.2S1.3,3.5,1.2,3.9
	c-0.1,0.4-0.3,0.7-0.3,1s0,0.8,0,0.8S0.6,6.1,0.6,6.5c0,0.4,0,1.3,0,1.3S0.6,9.3,2.2,9.4z"/>
</svg>
