<svg xmlns="http://www.w3.org/2000/svg" xmlns:xlink="http://www.w3.org/1999/xlink" version="1.1" x="0px" y="0px" viewBox="0 0 100 125" style="enable-background:new 0 0 100 100;" xml:space="preserve"><g><path d="M76.73,47.63c-1.14,0-2.27,0.17-3.35,0.51c0.03-0.44,0.05-0.88,0.05-1.32c0-10.58-8.61-19.18-19.18-19.18  c-9.52,0-17.5,6.97-18.95,16.18c-2.12-0.95-4.43-1.45-6.77-1.45c-9.13,0-16.55,7.42-16.55,16.55v3.27c0,6.47,3.82,10.18,10.49,10.18  h55.06c6.67,0,10.49-3.71,10.49-10.18v-3.27C88.02,52.69,82.96,47.63,76.73,47.63z M34.13,63.19v-2.9c0-7.12,5.79-12.92,12.92-12.92  c10.71,0,13.25-4.63,15.29-8.36c1.02-1.86,1.86-3.39,3.53-4.1c3.1,3.02,5.03,7.24,5.03,11.9c0,1.03-0.1,2.08-0.3,3.11  c-0.08,0.45,0.08,0.89,0.42,1.18l-0.05,0.27l0.24-0.13c0.39,0.23,0.86,0.24,1.26,0.02c1.3-0.73,2.78-1.11,4.27-1.11  c4.83,0,8.75,3.93,8.75,8.75v3.27c0,6.32-4.32,7.64-7.95,7.64H37.99C35.85,68.97,34.13,67.08,34.13,63.19z M14.52,62.18v-3.27  c0-7.73,6.29-14.01,14.01-14.01c2.53,0,5.02,0.68,7.18,1.98c0.38,0.23,0.85,0.24,1.25,0.03c0.39-0.21,0.65-0.61,0.67-1.05  c0.5-8.8,7.8-15.69,16.62-15.69c4.03,0,7.73,1.44,10.61,3.83c-1.72,0.95-2.66,2.64-3.63,4.4c-1.98,3.61-4.22,7.7-14.18,7.7  c-7.82,0-14.18,6.36-14.18,14.18v2.9c0,2.93,0.94,5.18,2.69,6.63H22.47C18.84,69.83,14.52,68.5,14.52,62.18z"/></g></svg>