<svg xmlns="http://www.w3.org/2000/svg" xmlns:xlink="http://www.w3.org/1999/xlink" version="1.1" x="0px" y="0px" viewBox="0 0 100 125" style="enable-background:new 0 0 100 100;" xml:space="preserve"><g><path d="M73.93,46.38c-1.89,0-3.47,1.28-3.96,3.01c-0.01,0-0.01,0-0.02,0H54.5c-0.14-0.42-0.33-0.8-0.58-1.15l10.13-10.13  c0.59,0.33,1.26,0.53,1.99,0.53c2.28,0,4.14-1.86,4.14-4.14c0-2.28-1.86-4.14-4.14-4.14c-2.28,0-4.14,1.86-4.14,4.14  c0,0.81,0.24,1.55,0.64,2.19L52.31,46.92c-0.22-0.1-0.45-0.18-0.68-0.24V27.59c1.73-0.49,3.01-2.08,3.01-3.97  c0-2.28-1.86-4.14-4.14-4.14c-2.28,0-4.14,1.86-4.14,4.14c0,1.96,1.37,3.59,3.2,4.02v19.04c-0.08,0.02-0.15,0.05-0.22,0.07  l-9.29-10.77c0.41-0.64,0.65-1.39,0.65-2.2c0-2.28-1.86-4.14-4.14-4.14c-2.28,0-4.14,1.86-4.14,4.14c0,2.28,1.86,4.14,4.14,4.14  c0.72,0,1.39-0.2,1.98-0.52l9.04,10.48c-0.4,0.43-0.7,0.95-0.89,1.51H29.98c-0.1,0-0.18,0.03-0.27,0.05  c-0.7-1.31-2.06-2.21-3.64-2.21c-2.28,0-4.14,1.86-4.14,4.14c0,2.28,1.86,4.14,4.14,4.14c2.25,0,4.09-1.81,4.13-4.06h16.32  c0.06,0.33,0.17,0.64,0.31,0.94l-9.85,9.85c-0.48-0.2-1.01-0.31-1.57-0.31c-2.28,0-4.14,1.86-4.14,4.14c0,2.28,1.86,4.14,4.14,4.14  c2.28,0,4.14-1.86,4.14-4.14c0-0.97-0.35-1.85-0.91-2.56l9.5-9.5c0.42,0.3,0.89,0.53,1.4,0.66v17.69c-1.83,0.43-3.2,2.07-3.2,4.02  c0,2.28,1.86,4.14,4.14,4.14c2.28,0,4.14-1.86,4.14-4.14c0-1.89-1.28-3.47-3.01-3.97V54.67c0.47-0.12,0.91-0.31,1.3-0.58  l10.17,11.79c-0.52,0.69-0.84,1.55-0.84,2.48c0,2.28,1.86,4.14,4.14,4.14c2.28,0,4.14-1.86,4.14-4.14c0-2.28-1.86-4.14-4.14-4.14  c-0.6,0-1.17,0.13-1.68,0.36L54.29,52.5c0.16-0.33,0.29-0.67,0.36-1.04H69.9c0.43,1.83,2.06,3.2,4.02,3.2  c2.28,0,4.14-1.86,4.14-4.14C78.07,48.24,76.21,46.38,73.93,46.38z M66.04,32.43c1.14,0,2.07,0.93,2.07,2.07s-0.93,2.07-2.07,2.07  c-0.38,0-0.74-0.11-1.05-0.3c-0.05-0.12-0.13-0.24-0.22-0.34c-0.12-0.12-0.26-0.19-0.41-0.24c-0.24-0.34-0.38-0.75-0.38-1.19  C63.97,33.36,64.9,32.43,66.04,32.43z M48.43,23.62c0-1.14,0.93-2.07,2.07-2.07c1.14,0,2.07,0.93,2.07,2.07  c0,0.95-0.65,1.75-1.53,1.99c-0.14-0.07-0.29-0.11-0.45-0.11c-0.19,0-0.36,0.06-0.51,0.15C49.14,25.45,48.43,24.62,48.43,23.62z   M34.47,33.77c0-1.14,0.93-2.07,2.07-2.07c1.14,0,2.07,0.93,2.07,2.07c0,0.36-0.1,0.69-0.26,0.99c-0.19,0.03-0.38,0.09-0.54,0.22  c-0.19,0.17-0.3,0.39-0.33,0.62c-0.28,0.14-0.6,0.23-0.94,0.23C35.4,35.84,34.47,34.91,34.47,33.77z M26.07,53.44  c-1.14,0-2.07-0.93-2.07-2.07c0-1.14,0.93-2.07,2.07-2.07c1.14,0,2.07,0.93,2.07,2.07C28.14,52.51,27.21,53.44,26.07,53.44z   M35.42,68.14c-1.14,0-2.07-0.93-2.07-2.07S34.28,64,35.42,64c1.14,0,2.07,0.93,2.07,2.07S36.56,68.14,35.42,68.14z M52.56,76.38  c0,1.14-0.93,2.07-2.07,2.07c-1.14,0-2.07-0.93-2.07-2.07s0.93-2.07,2.07-2.07C51.63,74.31,52.56,75.24,52.56,76.38z M68.46,68.35  c0,1.14-0.93,2.07-2.07,2.07c-1.14,0-2.07-0.93-2.07-2.07c0-0.51,0.19-0.97,0.5-1.33c0.16-0.04,0.32-0.1,0.45-0.21  c0.11-0.09,0.19-0.21,0.25-0.33c0.26-0.12,0.56-0.2,0.87-0.2C67.53,66.29,68.46,67.21,68.46,68.35z M73.93,52.59  c-1.14,0-2.07-0.93-2.07-2.07s0.93-2.07,2.07-2.07c1.14,0,2.07,0.93,2.07,2.07S75.07,52.59,73.93,52.59z"/></g></svg>