<svg xmlns="http://www.w3.org/2000/svg" xmlns:xlink="http://www.w3.org/1999/xlink" version="1.1" x="0px" y="0px" viewBox="0 0 100 125" style="enable-background:new 0 0 100 100;" xml:space="preserve"><g><path d="M76.73,36.23c-1.14,0-2.27,0.17-3.35,0.51c0.03-0.44,0.05-0.88,0.05-1.32c0-10.58-8.61-19.18-19.18-19.18   c-9.52,0-17.5,6.97-18.95,16.18c-2.12-0.95-4.43-1.45-6.77-1.45c-9.13,0-16.55,7.42-16.55,16.55v3.27   c0,6.47,3.82,10.18,10.49,10.18h55.06c6.67,0,10.49-3.71,10.49-10.18v-3.27C88.02,41.29,82.96,36.23,76.73,36.23z M34.13,51.8v-2.9   c0-7.12,5.79-12.92,12.92-12.92c10.71,0,13.25-4.64,15.29-8.36c1.02-1.86,1.86-3.39,3.52-4.1c3.1,3.02,5.03,7.24,5.03,11.9   c0,1.03-0.1,2.08-0.3,3.12c-0.08,0.45,0.08,0.89,0.42,1.18l-0.05,0.27l0.24-0.13c0.39,0.23,0.86,0.24,1.26,0.02   c1.3-0.73,2.78-1.11,4.27-1.11c4.83,0,8.75,3.93,8.75,8.75v3.27c0,6.32-4.32,7.64-7.95,7.64H37.99   C35.85,57.57,34.13,55.68,34.13,51.8z M14.52,50.79v-3.27c0-7.73,6.29-14.01,14.01-14.01c2.53,0,5.02,0.68,7.18,1.98   c0.38,0.23,0.85,0.24,1.25,0.03c0.39-0.21,0.65-0.61,0.67-1.05c0.5-8.8,7.8-15.69,16.62-15.69c4.03,0,7.73,1.44,10.61,3.83   c-1.72,0.95-2.66,2.64-3.63,4.4c-1.98,3.61-4.22,7.7-14.18,7.7c-7.82,0-14.18,6.36-14.18,14.18v2.9c0,2.93,0.94,5.18,2.69,6.63   H22.47C18.84,58.43,14.52,57.1,14.52,50.79z"/><path d="M47.08,72.76l6.22-6.22c0.5-0.5,0.5-1.3,0-1.79c-0.49-0.5-1.3-0.5-1.79,0l-6.22,6.22c-0.5,0.5-0.5,1.3,0,1.79   c0.25,0.25,0.57,0.37,0.9,0.37S46.83,73.01,47.08,72.76z"/><path d="M25.47,72.76l6.22-6.22c0.5-0.5,0.5-1.3,0-1.79c-0.49-0.5-1.3-0.5-1.79,0l-6.22,6.22c-0.5,0.5-0.5,1.3,0,1.79   c0.25,0.25,0.57,0.37,0.9,0.37C24.9,73.13,25.22,73.01,25.47,72.76z"/><path d="M38.48,65.03c-2.28,0-4.14,1.86-4.14,4.14c0,2.28,1.86,4.14,4.14,4.14c2.28,0,4.14-1.86,4.14-4.14   C42.63,66.89,40.77,65.03,38.48,65.03z M38.48,71.24c-1.14,0-2.07-0.93-2.07-2.07c0-1.14,0.93-2.07,2.07-2.07   c1.14,0,2.07,0.93,2.07,2.07C40.55,70.31,39.62,71.24,38.48,71.24z"/><path d="M60.09,64.2c-2.28,0-4.14,1.86-4.14,4.14c0,2.28,1.86,4.14,4.14,4.14c2.28,0,4.14-1.86,4.14-4.14   C64.23,66.06,62.38,64.2,60.09,64.2z M60.09,70.41c-1.14,0-2.07-0.93-2.07-2.07c0-1.14,0.93-2.07,2.07-2.07   c1.14,0,2.07,0.93,2.07,2.07C62.16,69.48,61.23,70.41,60.09,70.41z"/><path d="M73.11,65.16l-6.22,6.22c-0.5,0.5-0.5,1.3,0,1.79c0.25,0.25,0.57,0.37,0.9,0.37c0.32,0,0.65-0.12,0.9-0.37l6.22-6.22   c0.5-0.5,0.5-1.3,0-1.79C74.41,64.67,73.6,64.67,73.11,65.16z"/><path d="M37.59,75.38l-6.22,6.22c-0.5,0.5-0.5,1.3,0,1.79c0.25,0.25,0.57,0.37,0.9,0.37s0.65-0.12,0.9-0.37l6.22-6.22   c0.5-0.5,0.5-1.3,0-1.79C38.89,74.88,38.08,74.88,37.59,75.38z"/><path d="M59.19,75.38l-6.22,6.22c-0.5,0.5-0.5,1.3,0,1.79c0.25,0.25,0.57,0.37,0.9,0.37s0.65-0.12,0.9-0.37l6.22-6.22   c0.5-0.5,0.5-1.3,0-1.79C60.49,74.88,59.69,74.88,59.19,75.38z"/><path d="M46.18,75.24c-2.28,0-4.14,1.86-4.14,4.14s1.86,4.14,4.14,4.14c2.28,0,4.14-1.86,4.14-4.14S48.46,75.24,46.18,75.24z    M46.18,81.45c-1.14,0-2.07-0.93-2.07-2.07s0.93-2.07,2.07-2.07c1.14,0,2.07,0.93,2.07,2.07S47.32,81.45,46.18,81.45z"/><path d="M24.57,75.24c-2.28,0-4.14,1.86-4.14,4.14c0,2.28,1.86,4.14,4.14,4.14c2.28,0,4.14-1.86,4.14-4.14   C28.71,77.1,26.86,75.24,24.57,75.24z M24.57,81.45c-1.14,0-2.07-0.93-2.07-2.07s0.93-2.07,2.07-2.07c1.14,0,2.07,0.93,2.07,2.07   S25.71,81.45,24.57,81.45z"/><path d="M67.79,75.24c-2.28,0-4.14,1.86-4.14,4.14c0,2.28,1.86,4.14,4.14,4.14c2.28,0,4.14-1.86,4.14-4.14   C71.93,77.1,70.07,75.24,67.79,75.24z M67.79,81.45c-1.14,0-2.07-0.93-2.07-2.07s0.93-2.07,2.07-2.07c1.14,0,2.07,0.93,2.07,2.07   S68.93,81.45,67.79,81.45z"/></g></svg>