<svg xmlns="http://www.w3.org/2000/svg" xmlns:xlink="http://www.w3.org/1999/xlink" version="1.1" x="0px" y="0px" viewBox="0 0 100 125" style="enable-background:new 0 0 100 100;" xml:space="preserve"><g><path d="M42.36,25.21c-2.98,0-5.91,0.53-8.69,1.57c-0.5,0.19-0.82,0.66-0.82,1.19s0.33,1,0.82,1.19  C42.31,32.39,48.12,40.77,48.12,50c0,9.23-5.81,17.61-14.45,20.84c-0.5,0.19-0.82,0.66-0.82,1.19c0,0.53,0.33,1,0.82,1.19  c2.78,1.04,5.71,1.57,8.69,1.57c13.67,0,24.79-11.12,24.79-24.79S56.03,25.21,42.36,25.21z M37.74,28.23c0,0,0,0.01,0.01,0.01  C37.74,28.24,37.73,28.23,37.74,28.23C37.73,28.23,37.73,28.23,37.74,28.23z M50.66,50c0-8.95-4.91-17.17-12.53-21.53  c0.04,0.01,0.07,0.02,0.1,0.02c11.86,0,21.51,9.65,21.51,21.51c0,11.86-9.65,21.51-21.51,21.51c-0.04,0-0.07,0.01-0.1,0.02  C45.75,67.17,50.66,58.95,50.66,50z M37.74,71.76c0,0,0,0.01-0.01,0.01c0,0-0.01,0-0.01,0C37.73,71.77,37.74,71.76,37.74,71.76z   M43.17,72.23C53.36,69.97,61.01,60.86,61.01,50c0-10.86-7.65-19.97-17.84-22.23C55.07,28.2,64.62,38,64.62,50  C64.62,62,55.07,71.8,43.17,72.23z"/></g></svg>