<svg xmlns="http://www.w3.org/2000/svg" xmlns:xlink="http://www.w3.org/1999/xlink" version="1.1" x="0px" y="0px" viewBox="0 0 100 125" style="enable-background:new 0 0 100 100;" xml:space="preserve"><g><path d="M67.42,64.06l-6.22,6.22c-0.5,0.5-0.5,1.3,0,1.79c0.25,0.25,0.57,0.37,0.9,0.37s0.65-0.12,0.9-0.37l6.22-6.22   c0.5-0.5,0.5-1.3,0-1.79C68.72,63.57,67.92,63.57,67.42,64.06z"/><path d="M51.38,72.45c0.32,0,0.65-0.12,0.9-0.37l6.22-6.22c0.5-0.5,0.5-1.3,0-1.79c-0.49-0.5-1.3-0.5-1.79,0l-6.22,6.22   c-0.5,0.5-0.5,1.3,0,1.79C50.73,72.32,51.06,72.45,51.38,72.45z"/><path d="M40.66,72.45c0.32,0,0.65-0.12,0.9-0.37l6.22-6.22c0.5-0.5,0.5-1.3,0-1.79c-0.49-0.5-1.3-0.5-1.79,0l-6.22,6.22   c-0.5,0.5-0.5,1.3,0,1.79C40.01,72.32,40.34,72.45,40.66,72.45z"/><path d="M29.94,72.45c0.32,0,0.65-0.12,0.9-0.37l6.22-6.22c0.5-0.5,0.5-1.3,0-1.79c-0.49-0.5-1.3-0.5-1.79,0l-6.22,6.22   c-0.5,0.5-0.5,1.3,0,1.79C29.29,72.32,29.62,72.45,29.94,72.45z"/><path d="M56.71,74.74l-6.22,6.22c-0.5,0.5-0.5,1.3,0,1.79c0.25,0.25,0.57,0.37,0.9,0.37c0.32,0,0.65-0.12,0.9-0.37l6.22-6.22   c0.5-0.5,0.5-1.3,0-1.79C58.01,74.25,57.21,74.25,56.71,74.74z"/><path d="M45.99,74.74l-6.22,6.22c-0.5,0.5-0.5,1.3,0,1.79c0.25,0.25,0.57,0.37,0.9,0.37s0.65-0.12,0.9-0.37l6.22-6.22   c0.5-0.5,0.5-1.3,0-1.79C47.29,74.25,46.48,74.25,45.99,74.74z"/><path d="M35.26,74.74l-6.22,6.22c-0.5,0.5-0.5,1.3,0,1.79c0.25,0.25,0.57,0.37,0.9,0.37c0.32,0,0.65-0.12,0.9-0.37l6.22-6.22   c0.5-0.5,0.5-1.3,0-1.79C36.56,74.25,35.76,74.25,35.26,74.74z"/><path d="M76.73,36.86c-1.14,0-2.27,0.17-3.35,0.51c0.03-0.44,0.05-0.88,0.05-1.32c0-10.58-8.61-19.18-19.18-19.18   c-9.52,0-17.5,6.97-18.95,16.18c-2.12-0.95-4.43-1.45-6.77-1.45c-9.13,0-16.55,7.42-16.55,16.55v3.27   c0,6.47,3.82,10.18,10.49,10.18h55.06c6.67,0,10.49-3.71,10.49-10.18v-3.27C88.02,41.93,82.96,36.86,76.73,36.86z M34.13,52.43   v-2.9c0-7.12,5.79-12.92,12.92-12.92c10.71,0,13.25-4.64,15.29-8.36c1.02-1.86,1.86-3.39,3.52-4.1c3.1,3.02,5.03,7.24,5.03,11.9   c0,1.03-0.1,2.08-0.3,3.12c-0.08,0.45,0.08,0.89,0.42,1.18l-0.05,0.27l0.24-0.13c0.39,0.23,0.86,0.24,1.26,0.02   c1.3-0.73,2.78-1.11,4.27-1.11c4.83,0,8.75,3.93,8.75,8.75v3.27c0,6.32-4.32,7.64-7.95,7.64H37.99   C35.85,58.21,34.13,56.31,34.13,52.43z M14.52,51.42v-3.27c0-7.73,6.29-14.01,14.01-14.01c2.53,0,5.02,0.68,7.18,1.98   c0.38,0.23,0.85,0.24,1.25,0.03c0.39-0.21,0.65-0.61,0.67-1.05c0.5-8.8,7.8-15.69,16.62-15.69c4.03,0,7.73,1.44,10.61,3.83   c-1.72,0.95-2.66,2.64-3.63,4.4c-1.98,3.61-4.22,7.7-14.18,7.7c-7.82,0-14.18,6.36-14.18,14.18v2.9c0,2.93,0.94,5.18,2.69,6.63   H22.47C18.84,59.07,14.52,57.74,14.52,51.42z"/></g></svg>