<svg xmlns="http://www.w3.org/2000/svg" xmlns:xlink="http://www.w3.org/1999/xlink" version="1.1" x="0px" y="0px" viewBox="0 0 100 125" style="enable-background:new 0 0 100 100;" xml:space="preserve"><g><path d="M76.73,35.67c-1.14,0-2.27,0.17-3.35,0.51c0.03-0.44,0.05-0.88,0.05-1.32c0-10.58-8.61-19.18-19.18-19.18   c-9.52,0-17.5,6.96-18.95,16.18c-2.12-0.95-4.43-1.45-6.77-1.45c-9.13,0-16.55,7.42-16.55,16.55v3.27   c0,6.47,3.82,10.18,10.49,10.18h55.06c6.67,0,10.49-3.71,10.49-10.18v-3.27C88.02,40.74,82.96,35.67,76.73,35.67z M34.13,51.24   v-2.9c0-7.12,5.79-12.92,12.92-12.92c10.71,0,13.25-4.63,15.29-8.36c1.02-1.86,1.86-3.39,3.53-4.1c3.1,3.02,5.03,7.24,5.03,11.9   c0,1.03-0.1,2.08-0.3,3.11c-0.08,0.45,0.08,0.89,0.42,1.18l-0.05,0.27l0.24-0.13c0.39,0.23,0.86,0.24,1.26,0.02   c1.3-0.73,2.78-1.11,4.27-1.11c4.83,0,8.75,3.93,8.75,8.75v3.27c0,6.32-4.32,7.64-7.95,7.64H37.99   C35.85,57.02,34.13,55.12,34.13,51.24z M14.52,50.23v-3.27c0-7.73,6.29-14.01,14.01-14.01c2.53,0,5.02,0.68,7.18,1.98   c0.38,0.23,0.85,0.24,1.25,0.03c0.39-0.21,0.65-0.61,0.67-1.05c0.5-8.8,7.8-15.69,16.62-15.69c4.03,0,7.73,1.44,10.61,3.83   c-1.72,0.95-2.66,2.64-3.63,4.4c-1.98,3.61-4.22,7.7-14.18,7.7c-7.82,0-14.18,6.36-14.18,14.18v2.9c0,2.93,0.94,5.18,2.69,6.63   H22.47C18.84,57.88,14.52,56.55,14.52,50.23z"/><path d="M41.24,68.92c-2.28,0-4.14,1.86-4.14,4.14c0,2.28,1.86,4.14,4.14,4.14c2.28,0,4.14-1.86,4.14-4.14   C45.38,70.78,43.52,68.92,41.24,68.92z M41.24,75.13c-1.14,0-2.07-0.93-2.07-2.07s0.93-2.07,2.07-2.07s2.07,0.93,2.07,2.07   S42.38,75.13,41.24,75.13z"/><path d="M58.76,68.92c-2.28,0-4.14,1.86-4.14,4.14c0,2.28,1.86,4.14,4.14,4.14s4.14-1.86,4.14-4.14   C62.9,70.78,61.04,68.92,58.76,68.92z M58.76,75.13c-1.14,0-2.07-0.93-2.07-2.07s0.93-2.07,2.07-2.07s2.07,0.93,2.07,2.07   S59.9,75.13,58.76,75.13z"/><path d="M50,76.03c-2.28,0-4.14,1.86-4.14,4.14c0,2.28,1.86,4.14,4.14,4.14c2.28,0,4.14-1.86,4.14-4.14   C54.14,77.89,52.28,76.03,50,76.03z M50,82.25c-1.14,0-2.07-0.93-2.07-2.07c0-1.14,0.93-2.07,2.07-2.07s2.07,0.93,2.07,2.07   C52.07,81.32,51.14,82.25,50,82.25z"/><path d="M31.6,63.54c-2.28,0-4.14,1.86-4.14,4.14c0,2.28,1.86,4.14,4.14,4.14c2.28,0,4.14-1.86,4.14-4.14   C35.75,65.4,33.89,63.54,31.6,63.54z M31.6,69.75c-1.14,0-2.07-0.93-2.07-2.07c0-1.14,0.93-2.07,2.07-2.07   c1.14,0,2.07,0.93,2.07,2.07C33.67,68.82,32.75,69.75,31.6,69.75z"/><path d="M50,70.99c2.28,0,4.14-1.86,4.14-4.14c0-2.28-1.86-4.14-4.14-4.14c-2.28,0-4.14,1.86-4.14,4.14   C45.86,69.14,47.72,70.99,50,70.99z M50,64.78c1.14,0,2.07,0.93,2.07,2.07c0,1.14-0.93,2.07-2.07,2.07s-2.07-0.93-2.07-2.07   C47.93,65.71,48.86,64.78,50,64.78z"/><path d="M68.4,62.71c-2.28,0-4.14,1.86-4.14,4.14c0,2.28,1.86,4.14,4.14,4.14c2.28,0,4.14-1.86,4.14-4.14   C72.54,64.57,70.68,62.71,68.4,62.71z M68.4,68.92c-1.14,0-2.07-0.93-2.07-2.07c0-1.14,0.93-2.07,2.07-2.07   c1.14,0,2.07,0.93,2.07,2.07C70.47,67.99,69.54,68.92,68.4,68.92z"/></g></svg>