<svg xmlns="http://www.w3.org/2000/svg" xmlns:xlink="http://www.w3.org/1999/xlink" version="1.1" x="0px" y="0px" viewBox="0 0 100 125" style="enable-background:new 0 0 100 100;" xml:space="preserve"><g><path d="M50,27.75c-12.27,0-22.25,9.98-22.25,22.25S37.73,72.25,50,72.25c12.27,0,22.25-9.98,22.25-22.25S62.27,27.75,50,27.75z    M69.71,50c0,9.67-7.01,17.72-16.21,19.38C47.07,64.99,43.25,57.84,43.25,50c0-7.84,3.81-14.99,10.25-19.38   C62.7,32.28,69.71,40.33,69.71,50z M30.29,50c0-10.87,8.84-19.71,19.71-19.71c0.57,0,1.12,0.04,1.67,0.08   C45.57,35.04,41.98,42.2,41.98,50c0,7.8,3.58,14.96,9.69,19.63c-0.55,0.05-1.11,0.08-1.67,0.08C39.13,69.71,30.29,60.87,30.29,50z"/><path d="M50,25.84c0.7,0,1.27-0.57,1.27-1.27V15.8c0-0.7-0.57-1.27-1.27-1.27c-0.7,0-1.27,0.57-1.27,1.27v8.78   C48.73,25.27,49.3,25.84,50,25.84z"/><path d="M50,74.16c-0.7,0-1.27,0.57-1.27,1.27v8.78c0,0.7,0.57,1.27,1.27,1.27c0.7,0,1.27-0.57,1.27-1.27v-8.78   C51.27,74.73,50.7,74.16,50,74.16z"/><path d="M84.2,48.73h-8.78c-0.7,0-1.27,0.57-1.27,1.27c0,0.7,0.57,1.27,1.27,1.27h8.78c0.7,0,1.27-0.57,1.27-1.27   C85.47,49.3,84.9,48.73,84.2,48.73z"/><path d="M24.57,48.73H15.8c-0.7,0-1.27,0.57-1.27,1.27c0,0.7,0.57,1.27,1.27,1.27h8.78c0.7,0,1.27-0.57,1.27-1.27   C25.84,49.3,25.27,48.73,24.57,48.73z"/><path d="M68.27,33c0.32,0,0.65-0.12,0.9-0.37l4.25-4.25c0.5-0.5,0.5-1.3,0-1.79c-0.5-0.5-1.3-0.5-1.79,0l-4.25,4.25   c-0.5,0.5-0.5,1.3,0,1.79C67.62,32.87,67.95,33,68.27,33z"/><path d="M30.83,67.37l-4.25,4.25c-0.5,0.5-0.5,1.3,0,1.79c0.25,0.25,0.57,0.37,0.9,0.37s0.65-0.12,0.9-0.37l4.25-4.25   c0.5-0.5,0.5-1.3,0-1.79C32.13,66.88,31.33,66.88,30.83,67.37z"/><path d="M69.17,67.37c-0.5-0.5-1.3-0.5-1.79,0c-0.5,0.5-0.5,1.3,0,1.79l4.25,4.25c0.25,0.25,0.57,0.37,0.9,0.37   c0.32,0,0.65-0.12,0.9-0.37c0.5-0.5,0.5-1.3,0-1.79L69.17,67.37z"/><path d="M30.83,32.63c0.25,0.25,0.57,0.37,0.9,0.37c0.32,0,0.65-0.12,0.9-0.37c0.5-0.5,0.5-1.3,0-1.79l-4.25-4.25   c-0.5-0.5-1.3-0.5-1.79,0c-0.5,0.5-0.5,1.3,0,1.79L30.83,32.63z"/></g></svg>