<svg xmlns="http://www.w3.org/2000/svg" xmlns:xlink="http://www.w3.org/1999/xlink" version="1.1" x="0px" y="0px" viewBox="0 0 100 125" style="enable-background:new 0 0 100 100;" xml:space="preserve"><g><path d="M63.87,24.77c0.7,0,1.27-0.57,1.27-1.27v-8.78c0-0.7-0.57-1.27-1.27-1.27c-0.7,0-1.27,0.57-1.27,1.27v8.78   C62.6,24.2,63.17,24.77,63.87,24.77z"/><path d="M98.07,47.66H89.3c-0.7,0-1.27,0.57-1.27,1.27c0,0.7,0.57,1.27,1.27,1.27h8.78c0.7,0,1.27-0.57,1.27-1.27   C99.34,48.23,98.77,47.66,98.07,47.66z"/><path d="M82.14,31.92c0.32,0,0.65-0.12,0.9-0.37l4.25-4.25c0.5-0.5,0.5-1.3,0-1.79c-0.5-0.5-1.3-0.5-1.79,0l-4.25,4.25   c-0.5,0.5-0.5,1.3,0,1.79C81.49,31.8,81.81,31.92,82.14,31.92z"/><path d="M83.04,66.3c-0.5-0.5-1.3-0.5-1.79,0c-0.5,0.5-0.5,1.3,0,1.79l4.25,4.25c0.25,0.25,0.57,0.37,0.9,0.37   c0.32,0,0.65-0.12,0.9-0.37c0.5-0.5,0.5-1.3,0-1.79L83.04,66.3z"/><path d="M44.7,31.55c0.25,0.25,0.57,0.37,0.9,0.37c0.32,0,0.65-0.12,0.9-0.37c0.5-0.5,0.5-1.3,0-1.79l-4.25-4.25   c-0.5-0.5-1.3-0.5-1.79,0c-0.5,0.5-0.5,1.3,0,1.79L44.7,31.55z"/><path d="M84.87,49.68c0-12.27-9.98-22.25-22.25-22.25c-9.52,0-17.65,6.02-20.82,14.44c-9.01,0.53-16.43,7.28-17.82,16.13   c-2.12-0.95-4.43-1.45-6.77-1.45c-9.13,0-16.55,7.42-16.55,16.55v3.27c0,6.47,3.82,10.18,10.49,10.18h55.06   c6.67,0,10.49-3.71,10.49-10.18v-3.27c0-1.89-0.47-3.66-1.29-5.23C81.13,63.84,84.87,57.19,84.87,49.68z M62.62,29.96   c0.56,0,1.12,0.03,1.67,0.08c-5.14,3.93-8.48,9.62-9.41,15.98c-2.89-2.31-6.46-3.8-10.36-4.12C47.54,34.89,54.51,29.96,62.62,29.96   z M22.81,77.37v-2.9c0-7.12,5.79-12.92,12.92-12.92c10.71,0,13.25-4.64,15.29-8.36c1.02-1.86,1.86-3.39,3.53-4.1   c3.1,3.02,5.03,7.24,5.03,11.9c0,1.03-0.1,2.08-0.3,3.12c-0.08,0.45,0.08,0.89,0.42,1.18l-0.05,0.27l0.24-0.13   c0.39,0.23,0.86,0.24,1.26,0.02c1.3-0.73,2.78-1.11,4.27-1.11c4.83,0,8.75,3.93,8.75,8.75v3.27c0,6.32-4.32,7.64-7.95,7.64H26.67   C24.53,83.15,22.81,81.26,22.81,77.37z M3.2,76.36v-3.27c0-7.73,6.29-14.01,14.01-14.01c2.53,0,5.02,0.68,7.18,1.98   c0.38,0.23,0.85,0.24,1.25,0.03c0.39-0.21,0.65-0.61,0.67-1.05c0.5-8.8,7.8-15.69,16.62-15.69c4.03,0,7.73,1.44,10.61,3.83   c-1.72,0.95-2.66,2.64-3.63,4.4c-1.98,3.61-4.22,7.7-14.18,7.7c-7.82,0-14.18,6.36-14.18,14.18v2.9c0,2.93,0.94,5.18,2.69,6.63   H11.15C7.52,84.01,3.2,82.68,3.2,76.36z M73.98,65.76c-2.07-2.42-5.14-3.95-8.56-3.95c-1.14,0-2.27,0.17-3.35,0.51   c0.03-0.44,0.05-0.88,0.05-1.32c0-5.51-2.35-10.47-6.08-13.97c0.76-6.79,4.39-12.86,10.09-16.74c9.2,1.66,16.21,9.72,16.21,19.39   C82.33,56.32,79.02,62.19,73.98,65.76z"/></g></svg>