<svg xmlns="http://www.w3.org/2000/svg" xmlns:xlink="http://www.w3.org/1999/xlink" version="1.1" x="0px" y="0px" viewBox="0 0 100 125" style="enable-background:new 0 0 100 100;" xml:space="preserve"><g><path d="M76.73,34.86c-1.14,0-2.27,0.17-3.35,0.51c0.03-0.44,0.05-0.88,0.05-1.32c0-10.58-8.61-19.18-19.18-19.18   c-9.52,0-17.5,6.96-18.95,16.18c-2.12-0.95-4.43-1.45-6.77-1.45c-9.13,0-16.55,7.42-16.55,16.55v3.27   c0,6.47,3.82,10.18,10.49,10.18h55.06c6.67,0,10.49-3.71,10.49-10.18v-3.27C88.02,39.92,82.96,34.86,76.73,34.86z M34.13,50.43   v-2.9c0-7.12,5.79-12.92,12.92-12.92c10.71,0,13.25-4.63,15.29-8.36c1.02-1.86,1.86-3.39,3.53-4.1c3.1,3.02,5.03,7.24,5.03,11.9   c0,1.03-0.1,2.08-0.3,3.11c-0.08,0.45,0.08,0.89,0.42,1.18l-0.05,0.27l0.24-0.13c0.39,0.23,0.86,0.24,1.26,0.02   c1.3-0.73,2.78-1.11,4.27-1.11c4.83,0,8.75,3.93,8.75,8.75v3.27c0,6.32-4.32,7.64-7.95,7.64H37.99   C35.85,56.2,34.13,54.31,34.13,50.43z M14.52,49.42v-3.27c0-7.73,6.29-14.01,14.01-14.01c2.53,0,5.02,0.68,7.18,1.98   c0.38,0.23,0.85,0.24,1.25,0.03s0.65-0.61,0.67-1.05c0.5-8.8,7.8-15.69,16.62-15.69c4.03,0,7.73,1.44,10.61,3.83   c-1.72,0.95-2.66,2.64-3.63,4.4c-1.98,3.61-4.22,7.7-14.18,7.7c-7.82,0-14.18,6.36-14.18,14.18v2.9c0,2.93,0.94,5.18,2.69,6.63   H22.47C18.84,57.06,14.52,55.73,14.52,49.42z"/><path d="M57.83,70.97H44.84l7.31-7.31c0.5-0.5,0.5-1.3,0-1.79c-0.49-0.5-1.3-0.5-1.79,0l-9.48,9.48c-0.36,0.36-0.47,0.91-0.28,1.38   c0.2,0.47,0.66,0.78,1.17,0.78h12.99l-9.46,9.46c-0.5,0.5-0.5,1.3,0,1.79c0.25,0.25,0.57,0.37,0.9,0.37c0.32,0,0.65-0.12,0.9-0.37   l11.63-11.63c0.36-0.36,0.47-0.91,0.28-1.38C58.8,71.28,58.34,70.97,57.83,70.97z"/></g></svg>