<svg xmlns="http://www.w3.org/2000/svg" xmlns:xlink="http://www.w3.org/1999/xlink" version="1.1" x="0px" y="0px" viewBox="0 0 100 125" style="enable-background:new 0 0 100 100;" xml:space="preserve"><g><path d="M34.86,47.43v0.72l0.45,5.02c0.19,0.51,0.45,0.95,0.76,1.35l-0.89-9.81C34.98,45.58,34.86,46.49,34.86,47.43z"/><path d="M36.84,40.85l1.38,15.24c0.21,0.08,0.43,0.16,0.66,0.22l-1.47-16.24C37.21,40.33,37.02,40.59,36.84,40.85z"/><path d="M39.24,38.19l1.66,18.42c0.19,0.01,0.35,0.04,0.55,0.04h0.09l-1.71-18.91C39.63,37.89,39.43,38.03,39.24,38.19z"/><path d="M41.73,36.62l1.81,20.03h0.64l-1.83-20.3C42.14,36.43,41.94,36.52,41.73,36.62z"/><path d="M44.29,35.74l1.89,20.91h0.64l-1.9-21.01C44.71,35.67,44.5,35.7,44.29,35.74z"/><path d="M46.91,35.46l1.91,21.18h0.64l-1.92-21.2C47.33,35.45,47.13,35.46,46.91,35.46z"/><path d="M49.53,35.34l1.92,21.3h0.64l-1.93-21.36C49.96,35.31,49.75,35.32,49.53,35.34z"/><path d="M52.14,35l1.96,21.65h0.64l-1.97-21.79C52.56,34.91,52.36,34.96,52.14,35z"/><path d="M54.72,34.31l2.02,22.34h0.64l-2.04-22.56C55.14,34.16,54.93,34.23,54.72,34.31z"/><path d="M57.25,33.15l2.12,23.49h0.64l-2.16-23.88C57.66,32.9,57.46,33.03,57.25,33.15z"/><path d="M59.72,31.25l2.29,25.4h0.64L60.3,30.63C60.11,30.84,59.92,31.04,59.72,31.25z"/><path d="M62.08,28.15l2.57,28.49h0.64l-2.66-29.45C62.45,27.51,62.27,27.83,62.08,28.15z"/><path d="M64.37,24.29l2.92,32.36h0.64l-2.98-33.01C64.74,23.83,64.55,24.04,64.37,24.29z"/><path d="M66.98,24.03l2.95,32.62h0.64l-2.85-31.58C67.48,24.72,67.24,24.36,66.98,24.03z"/><polygon points="71.01,39.46 72.57,56.65 73.2,56.65 71.62,39.12  "/><path d="M73.54,38.17l1.67,18.48h0.64l-1.69-18.68C73.95,38.02,73.74,38.09,73.54,38.17z"/><path d="M76.51,37.62c-0.13,0-0.25,0.02-0.38,0.02l1.72,18.99c0.22-0.01,0.43-0.02,0.63-0.04l-1.71-18.96   C76.68,37.63,76.59,37.62,76.51,37.62z"/><path d="M78.79,37.94l1.65,18.3c0.21-0.06,0.42-0.13,0.62-0.21l-1.61-17.87C79.23,38.07,79.02,38,78.79,37.94z"/><path d="M81.55,39.31l1.41,15.55c0.21-0.2,0.4-0.41,0.58-0.63l-1.3-14.34C82.02,39.68,81.79,39.49,81.55,39.31z"/><path d="M67.81,61.87l-6.22,6.22c-0.5,0.5-0.5,1.3,0,1.79c0.25,0.25,0.57,0.37,0.9,0.37c0.32,0,0.65-0.12,0.9-0.37l6.22-6.22   c0.5-0.5,0.5-1.3,0-1.79C69.11,61.38,68.31,61.38,67.81,61.87z"/><path d="M67.81,73.14l-6.22,6.22c-0.5,0.5-0.5,1.3,0,1.79c0.25,0.25,0.57,0.37,0.9,0.37c0.32,0,0.65-0.12,0.9-0.37l6.22-6.22   c0.5-0.5,0.5-1.3,0-1.79C69.11,72.65,68.31,72.65,67.81,73.14z"/><path d="M32.6,61.87l-6.22,6.22c-0.5,0.5-0.5,1.3,0,1.79c0.25,0.25,0.57,0.37,0.9,0.37s0.65-0.12,0.9-0.37l6.22-6.22   c0.5-0.5,0.5-1.3,0-1.79C33.9,61.38,33.1,61.38,32.6,61.87z"/><path d="M32.6,73.14l-6.22,6.22c-0.5,0.5-0.5,1.3,0,1.79c0.25,0.25,0.57,0.37,0.9,0.37s0.65-0.12,0.9-0.37l6.22-6.22   c0.5-0.5,0.5-1.3,0-1.79C33.9,72.65,33.1,72.65,32.6,73.14z"/><path d="M76.73,34.67c-1.14,0-2.27,0.17-3.35,0.51c0.03-0.44,0.05-0.88,0.05-1.32c0-10.58-8.61-19.18-19.18-19.18   c-9.52,0-17.5,6.97-18.95,16.18c-2.12-0.95-4.43-1.45-6.77-1.45c-9.13,0-16.55,7.42-16.55,16.55v3.27   c0,6.47,3.82,10.18,10.49,10.18h26.15L38.59,69.44c-0.36,0.36-0.47,0.91-0.28,1.38c0.2,0.47,0.66,0.78,1.17,0.78h12.99L40.93,83.15   c-0.5,0.5-0.5,1.3,0,1.79c0.25,0.25,0.57,0.37,0.9,0.37c0.32,0,0.65-0.12,0.9-0.37l13.71-13.71c0.36-0.36,0.47-0.91,0.28-1.38   c-0.2-0.47-0.66-0.78-1.17-0.78H42.55l9.66-9.66h25.32c6.67,0,10.49-3.71,10.49-10.18v-3.27C88.02,39.74,82.96,34.67,76.73,34.67z    M22.47,56.87c-3.63,0-7.95-1.33-7.95-7.64v-3.27c0-7.73,6.29-14.01,14.01-14.01c2.53,0,5.02,0.68,7.18,1.98   c0.38,0.23,0.85,0.24,1.25,0.03c0.39-0.21,0.65-0.61,0.67-1.05c0.5-8.8,7.8-15.69,16.62-15.69c4.03,0,7.73,1.44,10.61,3.83   c-1.72,0.95-2.66,2.64-3.63,4.4c-1.98,3.61-4.22,7.7-14.18,7.7c-7.82,0-14.18,6.36-14.18,14.18v2.9c0,2.93,0.94,5.18,2.69,6.63   H22.47z M85.48,49.23c0,6.32-4.32,7.64-7.95,7.64H37.99c-2.14-0.86-3.86-2.75-3.86-6.63v-2.9c0-7.12,5.79-12.92,12.92-12.92   c10.71,0,13.25-4.63,15.29-8.36c1.02-1.86,1.86-3.39,3.52-4.1c3.1,3.02,5.03,7.24,5.03,11.9c0,1.03-0.1,2.08-0.3,3.12   c-0.08,0.45,0.08,0.89,0.42,1.18l0.19,0.14c0.39,0.23,0.86,0.24,1.26,0.02c1.3-0.73,2.78-1.11,4.27-1.11   c4.83,0,8.75,3.93,8.75,8.75V49.23z"/></g></svg>