<svg xmlns="http://www.w3.org/2000/svg" xmlns:xlink="http://www.w3.org/1999/xlink" version="1.1" x="0px" y="0px" viewBox="0 0 100 125" style="enable-background:new 0 0 100 100;" xml:space="preserve"><g><path d="M86.05,40.53c-0.78,0-1.55,0.1-2.29,0.3c0.01-0.21,0.01-0.43,0.01-0.64c0-8.36-6.8-15.16-15.16-15.16  c-5.34,0-10.18,2.75-12.92,7.25c-2.57-1.28-5.46-2.02-8.52-2.02c-9.52,0-17.5,6.96-18.95,16.18c-2.12-0.95-4.43-1.45-6.77-1.45  c-9.13,0-16.55,7.42-16.55,16.55v3.27c0,6.47,3.82,10.18,10.49,10.18h55.06c6.67,0,10.49-3.71,10.49-10.18v-3.27  c0-0.42-0.03-0.83-0.07-1.24h5.8c5.27,0,8.42-3.06,8.42-8.18v-2.54C95.09,44.58,91.04,40.53,86.05,40.53z M7.44,64.8v-3.27  c0-7.73,6.29-14.01,14.01-14.01c2.53,0,5.02,0.68,7.18,1.98c0.38,0.23,0.85,0.24,1.25,0.03c0.39-0.21,0.65-0.61,0.67-1.05  c0.5-8.8,7.8-15.69,16.62-15.69c3.96,0,7.61,1.4,10.47,3.72c0.05,0.04,0.09,0.08,0.14,0.12c-1.72,0.95-2.66,2.63-3.63,4.4  c-1.98,3.61-4.22,7.7-14.18,7.7c-7.82,0-14.18,6.36-14.18,14.18v2.9c0,2.93,0.94,5.18,2.69,6.63H15.4  C11.77,72.44,7.44,71.12,7.44,64.8z M27.06,65.81v-2.9c0-7.12,5.79-12.92,12.92-12.92c10.71,0,13.25-4.63,15.29-8.36  c1.02-1.86,1.86-3.39,3.52-4.1c0.01,0.01,0.03,0.02,0.04,0.04c0.04,0.04,0.09,0.09,0.14,0.13c0.31,0.32,0.61,0.65,0.9,0.99  c0.11,0.13,0.22,0.27,0.33,0.41c0.18,0.23,0.36,0.46,0.53,0.7c0.15,0.21,0.3,0.43,0.44,0.65c0.17,0.26,0.33,0.53,0.48,0.8  c0.12,0.21,0.24,0.43,0.35,0.65c0.09,0.18,0.18,0.37,0.27,0.56c0.16,0.34,0.3,0.68,0.43,1.02c0.09,0.24,0.18,0.48,0.26,0.72  c0.07,0.22,0.14,0.44,0.2,0.66c0.08,0.28,0.15,0.55,0.22,0.84c0.04,0.18,0.09,0.36,0.12,0.55c0.08,0.42,0.15,0.85,0.2,1.29  c0.02,0.14,0.03,0.28,0.04,0.43c0.04,0.49,0.08,0.98,0.08,1.48c0,1.03-0.1,2.08-0.3,3.11c-0.08,0.45,0.08,0.89,0.42,1.18L63.89,54  l0.24-0.13c0.39,0.23,0.86,0.24,1.26,0.02c0.97-0.55,2.05-0.9,3.16-1.04c0.37-0.05,0.74-0.07,1.11-0.07c0.28,0,0.55,0.02,0.83,0.04  c0.09,0.01,0.18,0.02,0.26,0.03c0.18,0.02,0.37,0.05,0.55,0.08c0.1,0.02,0.19,0.04,0.29,0.06c0.18,0.04,0.35,0.08,0.52,0.13  c0.08,0.02,0.17,0.05,0.25,0.08c0.2,0.07,0.4,0.14,0.59,0.22c0.05,0.02,0.1,0.04,0.14,0.06c0.77,0.33,1.49,0.77,2.13,1.29  c0,0,0,0,0.01,0.01c1.07,0.88,1.93,2.02,2.48,3.31c0.02,0.04,0.03,0.08,0.05,0.11c0.08,0.2,0.16,0.41,0.23,0.62  c0.02,0.08,0.05,0.15,0.07,0.23c0.23,0.78,0.36,1.61,0.36,2.47v3.27c0,6.32-4.32,7.64-7.95,7.64H30.91  C28.77,71.58,27.06,69.69,27.06,65.81z M92.56,52.1c0,3.74-1.98,5.64-5.88,5.64H80.3c-0.06-0.17-0.13-0.34-0.2-0.51  c-0.02-0.04-0.03-0.09-0.05-0.13c-0.86-2.03-2.29-3.72-4.06-4.92c-0.01-0.01-0.03-0.02-0.04-0.03c-0.27-0.18-0.54-0.35-0.83-0.5  c-0.05-0.03-0.09-0.05-0.14-0.08c-0.28-0.15-0.56-0.29-0.85-0.41c-0.03-0.01-0.06-0.03-0.09-0.04c-0.32-0.13-0.64-0.25-0.98-0.36  c-0.06-0.02-0.13-0.03-0.19-0.05c-0.26-0.08-0.52-0.15-0.79-0.2c-0.11-0.02-0.22-0.04-0.33-0.06c-0.24-0.04-0.48-0.08-0.73-0.11  c-0.11-0.01-0.21-0.03-0.32-0.04c-0.35-0.03-0.69-0.05-1.05-0.05c-1.14,0-2.27,0.17-3.35,0.51c0.03-0.44,0.05-0.88,0.05-1.32  c0-0.58-0.04-1.15-0.09-1.72c-0.01-0.14-0.02-0.28-0.04-0.42c-0.06-0.51-0.13-1.02-0.23-1.52c-0.04-0.2-0.09-0.39-0.13-0.59  c-0.08-0.33-0.16-0.66-0.26-0.99c-0.09-0.32-0.19-0.63-0.3-0.94c-0.1-0.3-0.21-0.6-0.33-0.9c-0.1-0.25-0.21-0.5-0.32-0.75  c-0.12-0.28-0.26-0.55-0.4-0.82c-0.16-0.32-0.33-0.64-0.51-0.95c-0.15-0.25-0.3-0.51-0.46-0.75c-0.12-0.19-0.24-0.38-0.37-0.56  c-0.27-0.39-0.55-0.77-0.85-1.13c-0.1-0.13-0.21-0.25-0.32-0.37c-0.29-0.34-0.6-0.68-0.91-1c-0.06-0.06-0.11-0.12-0.17-0.18  c-0.39-0.39-0.8-0.75-1.22-1.11c-0.07-0.06-0.15-0.12-0.22-0.18c-0.44-0.36-0.89-0.7-1.36-1.02c2.3-3.71,6.31-5.96,10.72-5.96  c6.96,0,12.63,5.66,12.63,12.63c0,0.78-0.08,1.58-0.22,2.36c-0.09,0.48,0.11,0.98,0.51,1.27s0.93,0.32,1.36,0.08  c0.97-0.54,2.06-0.83,3.17-0.83c3.59,0,6.5,2.92,6.5,6.5V52.1z"/></g></svg>